<?xml version="1.0" standalone="no"?>
<!DOCTYPE svg PUBLIC "-//W3C//DTD SVG 20010904//EN"
 "http://www.w3.org/TR/2001/REC-SVG-20010904/DTD/svg10.dtd">
<svg version="1.0" xmlns="http://www.w3.org/2000/svg"
 width="700.000000pt" height="700.000000pt" viewBox="0 0 700.000000 700.000000"
 preserveAspectRatio="xMidYMid meet">
<metadata>
Created by potrace 1.14, written by Peter Selinger 2001-2017
</metadata>
<g transform="translate(0.000000,700.000000) scale(0.100000,-0.100000)"
fill="#000000" stroke="none">
<path d="M3440 5304 c-14 -2 -59 -9 -100 -15 -106 -15 -349 -72 -493 -116
-719 -215 -1252 -641 -1420 -1133 -45 -133 -56 -203 -52 -355 3 -144 6 -169
31 -267 70 -278 232 -561 470 -823 85 -94 114 -113 170 -109 96 6 396 128 594
242 158 91 519 339 643 443 7 5 35 27 62 48 61 48 314 247 335 264 58 47 299
222 318 230 12 6 22 14 22 19 0 4 5 8 11 8 6 0 23 9 39 20 55 39 207 108 280
126 55 14 111 18 210 18 125 0 140 -2 205 -28 39 -16 82 -37 97 -47 14 -11 29
-19 33 -19 8 0 68 -45 114 -85 158 -138 299 -329 436 -590 37 -71 69 -131 70
-133 5 -5 35 104 51 179 8 37 17 109 21 160 10 121 10 509 0 619 -18 202 -101
436 -222 625 -73 115 -149 200 -288 323 -92 81 -306 203 -462 262 -33 12 -69
26 -80 31 -27 11 -152 47 -190 54 -118 23 -168 29 -325 40 -94 7 -546 13 -580
9z"/>
<path d="M3319 2969 c-269 -213 -534 -387 -749 -491 -60 -29 -110 -56 -110
-59 0 -4 51 -55 113 -114 222 -212 489 -388 759 -499 123 -51 308 -107 398
-121 25 -4 54 -9 65 -12 43 -10 313 -12 360 -2 28 5 63 12 78 15 124 22 264
99 361 199 161 165 235 384 240 705 1 111 7 110 -81 23 -240 -235 -458 -285
-665 -154 -72 46 -81 54 -328 301 -129 130 -256 250 -281 267 l-46 32 -114
-90z"/>
</g>
</svg>
